{"title":"Firefox (1982) + Bonus 30' XviD - Ita Eng Ac3 - Sub Ita Eng","uid":8455710,"size":2470200935,"categoryP":"video","categoryS":"movies","magnet":"?xt=urn:btih:ca40c5751e07e83dcb7f8552a763feec4f7e1d4f&amp;dn=Firefox+%281982%29+%2B+Bonus+30%27+XviD+-+Ita+Eng+Ac3+-+Sub+Ita+Eng&amp;tr=udp%3A%2F%2Ftracker.openbittorrent.com%3A80&amp;tr=udp%3A%2F%2Fopen.demonii.com%3A1337&amp;tr=udp%3A%2F%2Ftracker.coppersurfer.tk%3A6969&amp;tr=udp%3A%2F%2Fexodus.desync.com%3A6969","seeders":0,"leechers":0,"uploader":null,"files":6,"time":1368060108,"description":"\nGeneral\nComplete name : F:Firefox - Volpe Di Fuoco (1982)Firefox - Volpe Di Fuoco (1982).avi\nFormat : AVI\nFormat/Info : Audio Video Interleave\nFormat profile : OpenDML\nFile size : 1.99 GiB\nDuration : 1h 59mn\nOverall bit rate : 2 390 Kbps\nWriting application : VirtualDubMod 1.5.4.1 (build 2178/release)\nWriting library : VirtualDubMod build 2178/release\n\nVideo\nID : 0\nFormat : MPEG-4 Visual\nFormat profile : Advanced Simple@L5\nFormat settings, BVOP : No\nFormat settings, QPel : No\nFormat settings, GMC : No warppoints\nFormat settings, Matrix : Custom\nCodec ID : XVID\nCodec ID/Hint : XviD\nDuration : 1h 59mn\nBit rate : 1 803 Kbps\nWidth : 720 pixels\nHeight : 304 pixels\nDisplay aspect ratio : 2.35:1\nFrame rate : 25.000 fps\nColor space : YUV\nChroma subsampling : 4:2:0\nBit depth : 8 bits\nScan type : Progressive\nBits/(Pixel*Frame) : 0.329\nStream size : 1.50 GiB (75%)\nWriting library : XviD 1.2.1 (UTC 2008-12-04)\n\nAudio #1\nID : 1\nFormat : AC-3\nFormat/Info : Audio Coding 3\nMode extension : CM (complete main)\nCodec ID : 2000\nDuration : 1h 59mn\nBit rate mode : Constant\nBit rate : 192 Kbps\nChannel(s) : 1 channel\nChannel positions : Front: C\nSampling rate : 48.0 KHz\nBit depth : 16 bits\nVideo delay : 25ms\nStream size : 164 MiB (8%)\nAlignment : Split accross interleaves\nInterleave, duration : 96 ms (2.40 video frames)\nInterleave, preload duration : 96 ms\nLanguage : Italian\n\nAudio #2\nID : 2\nFormat : AC-3\nFormat/Info : Audio Coding 3\nMode extension : CM (complete main)\nCodec ID : 2000\nDuration : 1h 59mn\nBit rate mode : Constant\nBit rate : 384 Kbps\nChannel(s) : 6 channels\nChannel positions : Front: L C R, Side: L R, LFE\nSampling rate : 48.0 KHz\nBit depth : 16 bits\nVideo delay : 25ms\nStream size : 328 MiB (16%)\nAlignment : Split accross interleaves\nInterleave, duration : 96 ms (2.40 video frames)\nInterleave, preload duration : 96 ms\nLanguage : English","torrent":{"xt":"urn:btih:ca40c5751e07e83dcb7f8552a763feec4f7e1d4f","amp;dn":"Firefox+%281982%29+%2B+Bonus+30%27+XviD+-+Ita+Eng+Ac3+-+Sub+Ita+Eng","amp;tr":["udp%3A%2F%2Ftracker.openbittorrent.com%3A80","udp%3A%2F%2Fopen.demonii.com%3A1337","udp%3A%2F%2Ftracker.coppersurfer.tk%3A6969","udp%3A%2F%2Fexodus.desync.com%3A6969"],"infoHash":"ca40c5751e07e83dcb7f8552a763feec4f7e1d4f","infoHashBuffer":{"type":"Buffer","data":[202,64,197,117,30,7,232,61,203,127,133,82,167,99,254,236,79,126,29,79]},"announce":[],"urlList":[]}}